<?xml version="1.0" encoding="utf-8"?>
<!-- Generator: Adobe Illustrator 15.0.0, SVG Export Plug-In  -->
<!DOCTYPE svg PUBLIC "-//W3C//DTD SVG 1.1//EN" "http://www.w3.org/Graphics/SVG/1.1/DTD/svg11.dtd" [
	<!ENTITY ns_flows "http://ns.adobe.com/Flows/1.0/">
]>
<svg version="1.1"
	 xmlns="http://www.w3.org/2000/svg" xmlns:xlink="http://www.w3.org/1999/xlink" xmlns:a="http://ns.adobe.com/AdobeSVGViewerExtensions/3.0/"
	 x="0px" y="0px" width="60px" height="60px" viewBox="0 0 60 60" enable-background="new 0 0 60 60" xml:space="preserve">
<defs>
</defs>
<path fill="#1D1D1B" d="M30,0C13.431,0,0,13.431,0,30.001C0,46.569,13.431,60,30,60c16.568,0,30-13.431,30-29.999
	C60,13.431,46.568,0,30,0z M32.833,53.076c0,1.564-1.268,2.833-2.833,2.833s-2.835-1.269-2.835-2.833V38.884
	c0-1.564,1.27-2.834,2.835-2.834s2.833,1.27,2.833,2.834V53.076z M27.164,30.002c0-0.747,0.305-1.478,0.832-2.006
	c0.528-0.525,1.259-0.832,2.004-0.832c0.747,0,1.477,0.307,2.002,0.832c0.529,0.528,0.831,1.259,0.831,2.006
	c0,0.746-0.301,1.477-0.831,2.001c-0.526,0.531-1.255,0.831-2.002,0.831c-0.746,0-1.476-0.3-2.004-0.831
	C27.469,31.479,27.164,30.748,27.164,30.002z M38.007,40.138c-0.543,0-1.086-0.208-1.502-0.623c-0.829-0.83-0.829-2.176,0.001-3.006
	c1.739-1.739,2.699-4.05,2.699-6.509c0-2.458-0.959-4.771-2.699-6.511c-3.587-3.585-9.426-3.585-13.014,0
	c-1.739,1.739-2.697,4.053-2.697,6.511c0,2.459,0.958,4.771,2.697,6.509c0.832,0.83,0.832,2.176,0.001,3.006
	c-0.829,0.831-2.176,0.831-3.006,0c-2.542-2.541-3.944-5.92-3.944-9.515c0-3.594,1.402-6.973,3.944-9.517
	c5.246-5.24,13.777-5.24,19.022-0.001c2.544,2.545,3.946,5.924,3.946,9.518c0,3.595-1.402,6.975-3.946,9.515
	C39.097,39.93,38.552,40.138,38.007,40.138z M47.16,47.154c-0.881,0.878-2.307,0.879-3.185-0.001
	c-0.879-0.879-0.879-2.304,0.001-3.185c3.731-3.73,5.786-8.691,5.786-13.967c0-5.277-2.055-10.239-5.788-13.97
	c-3.731-3.734-8.693-5.788-13.972-5.788c-5.279,0-10.242,2.054-13.972,5.788c-3.734,3.731-5.791,8.693-5.791,13.97
	c0,5.276,2.057,10.236,5.79,13.967c0.88,0.879,0.882,2.305,0.003,3.185c-0.44,0.439-1.019,0.661-1.594,0.661
	c-0.576,0-1.151-0.221-1.592-0.66c-4.585-4.581-7.11-10.672-7.11-17.153c0-6.481,2.524-12.573,7.11-17.156
	c4.581-4.582,10.674-7.105,17.156-7.105c6.481,0,12.576,2.523,17.157,7.106c4.583,4.582,7.106,10.674,7.106,17.155
	C54.266,36.481,51.743,42.574,47.16,47.154z"/>
</svg>
